<svg width="286" height="176" viewBox="0 0 286 176" fill="none" xmlns="http://www.w3.org/2000/svg">
<path d="M17.439 158.481H4.89906L3.17627 139.986H19.1618L17.439 158.481Z" fill="#C6D0D6"/>
<path d="M4.73781 64.5265C4.00894 65.2512 4.67569 66.9409 6.1293 68.4069C7.5829 69.873 9.26428 70.5604 9.9973 69.8357C10.7303 69.111 10.0594 67.4172 8.60995 65.9511C7.16049 64.4851 5.47083 63.8018 4.73781 64.5265Z" fill="#FFCD32"/>
<path d="M12.2998 69.8398C13.0245 70.5728 14.7142 69.9061 16.1802 68.4525C17.6462 66.9989 18.3337 65.3134 17.6089 64.5845C16.8842 63.8556 15.1904 64.5182 13.7244 65.9718C12.2583 67.4254 11.575 69.111 12.2998 69.8398Z" fill="#FFCD32"/>
<path d="M4.73781 73.4884C4.00894 74.2131 4.67569 75.9028 6.1293 77.3688C7.5829 78.8348 9.26428 79.5223 9.9973 78.7934C10.7303 78.0645 10.0594 76.379 8.60995 74.913C7.16049 73.4469 5.47083 72.7636 4.73781 73.4884Z" fill="#FFCD32"/>
<path d="M13.7244 74.9378C12.2583 76.3873 11.575 78.0728 12.2998 78.8058C13.0245 79.5388 14.7142 78.8679 16.1802 77.4185C17.6462 75.969 18.3337 74.2793 17.6089 73.5463C16.8842 72.8133 15.1904 73.4842 13.7244 74.9378Z" fill="#FFCD32"/>
<path d="M4.73781 82.4502C4.00894 83.1749 4.67569 84.8646 6.1293 86.3306C7.5829 87.7966 9.26428 88.4841 9.9973 87.7552C10.7303 87.0263 10.0594 85.3408 8.60995 83.8748C7.16049 82.4088 5.47083 81.7213 4.73781 82.4502Z" fill="#FFCD32"/>
<path d="M13.7244 83.9203C12.2583 85.3698 11.575 87.0553 12.2998 87.7883C13.0245 88.5213 14.7142 87.8504 16.1802 86.401C17.6462 84.9515 18.3337 83.2618 17.6089 82.5288C16.8842 81.7958 15.1904 82.446 13.7244 83.9203Z" fill="#FFCD32"/>
<path d="M11.2106 57.0514C10.1794 57.0514 9.45464 58.708 9.44636 60.7786C9.43808 62.8493 10.1421 64.5058 11.1733 64.5058C12.2045 64.5058 12.9292 62.8493 12.9375 60.7786C12.9458 58.708 12.2418 57.0597 11.2106 57.0514Z" fill="#FFCD32"/>
<path d="M11.4298 65.392H10.9121V149.196H11.4298V65.392Z" fill="#0083AF"/>
<path d="M20.1762 142.209H2.1614L1.72656 137.551H20.611L20.1762 142.209ZM2.63351 141.692H19.7041L20.0436 138.068H2.29393L2.63351 141.692Z" fill="#0083AF"/>
<path d="M275.116 44.4825H262.576L260.854 31.6817H276.839L275.116 44.4825Z" fill="#C6D0D6"/>
<path d="M262.416 10.8342C261.687 11.5631 262.353 13.2528 263.807 14.7188C265.261 16.1848 266.942 16.8681 267.675 16.1434C268.408 15.4187 267.737 13.729 266.288 12.263C264.838 10.7969 263.149 10.1095 262.416 10.8342Z" fill="#C4D7FF"/>
<path d="M269.977 16.1558C270.702 16.8888 272.392 16.2179 273.858 14.7684C275.324 13.319 276.011 11.6293 275.287 10.8963C274.562 10.1633 272.868 10.8342 271.402 12.2836C269.936 13.7331 269.253 15.4228 269.977 16.1558Z" fill="#C4D7FF"/>
<path d="M262.416 19.796C261.687 20.5208 262.353 22.2146 263.807 23.6806C265.261 25.1466 266.942 25.83 267.675 25.1052C268.408 24.3805 267.737 22.6867 266.288 21.2207C264.838 19.7546 263.149 19.0713 262.416 19.796Z" fill="#C4D7FF"/>
<path d="M271.402 21.2455C269.936 22.6991 269.253 24.3846 269.977 25.1176C270.702 25.8507 272.392 25.1798 273.858 23.7262C275.324 22.2725 276.011 20.5912 275.287 19.8582C274.562 19.1251 272.868 19.796 271.402 21.2455Z" fill="#C4D7FF"/>
<path d="M268.897 3.36324C267.865 3.36324 267.141 5.01977 267.132 7.09043C267.124 9.16109 267.828 10.8176 268.859 10.8176C269.891 10.8176 270.615 9.16109 270.624 7.09043C270.632 5.01977 269.92 3.36738 268.897 3.36324Z" fill="#C4D7FF"/>
<path d="M269.108 11.7039H268.59V40.8961H269.108V11.7039Z" fill="#0083AF"/>
<path d="M277.854 34.4232H259.839L259.425 29.7642H278.309L277.854 34.4232ZM260.311 33.9055H277.382L277.721 30.2819H259.971L260.311 33.9055Z" fill="#0083AF"/>
<path d="M283.987 42.9171H253.706V44.8221H283.987V42.9171Z" fill="#C6D0D6"/>
<path d="M280.293 43.7414L277.056 48.5263L277.485 48.8164L280.722 44.0314L280.293 43.7414Z" fill="#C6D0D6"/>
<path d="M277.39 44.0477H276.873V51.7671H277.39V44.0477Z" fill="#C6D0D6"/>
<path d="M257.409 43.7094L256.98 43.9993L260.215 48.7859L260.644 48.4961L257.409 43.7094Z" fill="#C6D0D6"/>
<path d="M260.825 44.0477H260.307V51.7671H260.825V44.0477Z" fill="#C6D0D6"/>
<path d="M201.977 85.6679C201.951 85.5921 201.942 85.5119 201.95 85.4324C201.958 85.3529 201.982 85.2759 202.02 85.2061C202.059 85.1364 202.112 85.0756 202.176 85.0274C202.24 84.9793 202.313 84.945 202.391 84.9266C202.391 84.9266 200.763 85.3987 200.581 84.761C200.432 84.2516 201.032 83.9327 201.032 83.9327C201.032 83.9327 199.633 84.3469 199.446 83.7008C199.26 83.0548 200.664 82.6613 200.664 82.6613C200.58 82.6866 200.491 82.6948 200.404 82.6856C200.316 82.6763 200.231 82.6496 200.154 82.6072C200.077 82.5648 200.009 82.5075 199.954 82.4386C199.9 82.3696 199.859 82.2905 199.836 82.2058C199.579 81.3154 202.826 80.6528 202.826 80.6528C202.826 80.6528 201.306 80.3132 201.413 79.5429C201.533 78.6857 207.547 79.2903 207.547 79.2903C207.87 79.3524 209.385 83.6967 209.323 84.0197L205.352 85.3035L205.033 85.3946C205.033 85.3946 202.266 86.3388 201.977 85.6679Z" fill="#FFA87C"/>
<path d="M203.38 81.6233L200.325 82.5075L200.469 83.0047L203.524 82.1206L203.38 81.6233Z" fill="#0083AF"/>
<path d="M203.756 82.8743L200.7 83.7542L200.843 84.2517L203.899 83.3718L203.756 82.8743Z" fill="#0083AF"/>
<path d="M204.122 84.1539L202.085 84.7433L202.229 85.2406L204.266 84.6512L204.122 84.1539Z" fill="#0083AF"/>
<path d="M228.845 59.4203C225.723 71.8152 218.355 75.2567 206.992 78.2964C206.88 78.3296 208.963 84.8439 209.062 84.8107C212.79 83.734 234.171 81.8373 236.275 54.6246C236.287 54.6246 229.21 57.9832 228.845 59.4203Z" fill="#C4D7FF"/>
<path d="M242.939 53.7922C242.646 53.7993 242.355 53.7488 242.082 53.6433C241.809 53.5379 241.559 53.3798 241.347 53.1779C241.135 52.976 240.965 52.7343 240.847 52.4666C240.728 52.199 240.664 51.9106 240.657 51.618L240.549 50.301L240.466 43.5631L244.922 43.4596L245.113 51.5103C245.12 51.8029 245.069 52.0941 244.964 52.3671C244.859 52.6402 244.7 52.8898 244.499 53.1017C244.297 53.3136 244.055 53.4837 243.787 53.6021C243.52 53.7206 243.231 53.7852 242.939 53.7922V53.7922Z" fill="#FFA87C"/>
<path d="M240.16 49.3154C236.346 49.2699 234.627 45.3936 234.929 41.2978C235.29 36.3282 238.077 32.1496 243.142 33.127C252.369 34.9036 249.573 49.419 240.16 49.3154Z" fill="#FFA87C"/>
<path d="M242.624 41.2233C242.612 41.3117 242.574 41.3945 242.514 41.4611C242.455 41.5278 242.377 41.5754 242.291 41.5979C242.204 41.6204 242.113 41.6167 242.029 41.5874C241.944 41.5581 241.871 41.5045 241.817 41.4333C241.763 41.3621 241.732 41.2765 241.726 41.1874C241.721 41.0983 241.742 41.0096 241.788 40.9326C241.833 40.8556 241.9 40.7937 241.98 40.7548C242.06 40.7159 242.151 40.7016 242.239 40.7139C242.298 40.7215 242.355 40.7408 242.406 40.7706C242.458 40.8005 242.503 40.8403 242.538 40.8877C242.574 40.9351 242.6 40.9893 242.615 41.0469C242.63 41.1045 242.633 41.1644 242.624 41.2233Z" fill="#0083AF"/>
<path d="M237.837 41.0162C237.824 41.1045 237.786 41.1872 237.727 41.2539C237.668 41.3206 237.591 41.3683 237.504 41.391C237.418 41.4137 237.327 41.4104 237.243 41.3815C237.159 41.3526 237.085 41.2994 237.031 41.2286C236.977 41.1578 236.945 41.0725 236.939 40.9836C236.933 40.8947 236.954 40.806 236.998 40.7289C237.043 40.6517 237.109 40.5894 237.189 40.5499C237.269 40.5104 237.359 40.4954 237.447 40.5068C237.566 40.5233 237.674 40.586 237.747 40.6814C237.82 40.7768 237.852 40.8971 237.837 41.0162V41.0162Z" fill="#0083AF"/>
<path d="M243.369 40.6062C243.264 40.3774 243.108 40.1756 242.912 40.0163C242.717 39.857 242.488 39.7443 242.243 39.6868C242.036 39.6578 241.824 39.6804 241.628 39.7526C241.431 39.8249 241.256 39.9445 241.116 40.101L240.752 39.7324C240.95 39.5194 241.196 39.3573 241.47 39.26C241.744 39.1626 242.038 39.1329 242.326 39.1733C242.653 39.2417 242.96 39.386 243.222 39.5946C243.484 39.8032 243.693 40.0702 243.833 40.3743L243.369 40.6062Z" fill="#0083AF"/>
<path d="M239.907 43.2566L238.122 43.149L238.247 40.1051C238.182 39.9448 238.078 39.8035 237.944 39.6941C237.81 39.5848 237.651 39.5111 237.48 39.4798C237.257 39.4795 237.037 39.5337 236.839 39.6376C236.642 39.7415 236.472 39.892 236.346 40.0761L235.932 39.7531C236.111 39.4989 236.352 39.2937 236.631 39.1562C236.91 39.0188 237.219 38.9535 237.53 38.9662C237.797 39.0091 238.049 39.121 238.26 39.291C238.47 39.461 238.633 39.6831 238.731 39.9353L238.76 39.9933L238.652 42.6644L239.928 42.739L239.907 43.2566Z" fill="#0083AF"/>
<path d="M242.015 31.868C234.213 32.2076 234.039 36.3862 238.064 37.6162C239.485 38.0303 245.56 36.5643 246.136 38.9207C246.55 40.5151 246.028 43.3602 244.218 43.062C240.827 42.4698 235.352 42.6479 234.718 44.3044C233.757 46.8803 236.023 49.8 239.423 50.3963C242.823 50.9927 247.465 49.2036 248.666 43.7288C249.453 40.1465 250.091 31.516 242.015 31.868Z" fill="#0083AF"/>
<path d="M248.04 40.0471L247.767 43.7743H247.825C248.27 43.7261 248.684 43.5216 248.993 43.197C249.301 42.8725 249.485 42.449 249.511 42.0019C249.537 41.5548 249.403 41.113 249.134 40.7551C248.865 40.3972 248.477 40.1463 248.04 40.0471Z" fill="#FFA87C"/>
<path d="M239.7 44.9919C239.178 44.988 238.671 44.8151 238.255 44.4991L238.561 44.0849C238.774 44.2478 239.018 44.3638 239.279 44.4252C239.539 44.4866 239.81 44.492 240.073 44.4411C240.378 44.38 240.666 44.257 240.921 44.0796C241.176 43.9022 241.392 43.6742 241.556 43.4099L241.999 43.6832C241.796 44.0071 241.53 44.2865 241.216 44.5044C240.902 44.7222 240.547 44.874 240.172 44.9505C240.017 44.9784 239.858 44.9922 239.7 44.9919Z" fill="#FFA87C"/>
<path d="M272.569 153.163L276.918 149.225L269.281 130.038L260.415 132.66L272.569 153.163Z" fill="#FFA87C"/>
<path d="M267.551 158.758L279.171 153.826L276.919 149.225L266.93 158.315L267.551 158.758Z" fill="#FFA87C"/>
<path d="M272.268 153.457L277.958 150.765L279.453 153.967L267.551 158.758L266.93 158.315L272.268 153.457Z" fill="#C4D7FF"/>
<path d="M266.702 158.41L269.166 156.054L269.729 157.267L279.229 153.109L279.714 154.112L267.05 159.052L266.702 158.41Z" fill="#0083AF"/>
<path d="M271.92 154.927L273.282 153.987C273.282 153.987 272.566 151.383 271.911 151.619C271.153 151.888 271.92 154.927 271.92 154.927Z" fill="#C4D7FF"/>
<path d="M267.26 148.442L276.351 144.661L266.449 118.736L264.411 83.121C264.411 83.121 258.087 73.5711 246.363 74.0101L248.604 94.2736L253.031 118.753L267.26 148.442Z" fill="#C6D0D6"/>
<path d="M241.228 155.818L247.138 153.213L247.924 133.492L240.267 137.898L241.228 155.818Z" fill="#FFA87C"/>
<path d="M234.95 158.692L247.569 158.319L247.138 153.213L234.532 158.054L234.95 158.692Z" fill="#FFA87C"/>
<path d="M241.27 155.466L247.552 155.027L247.78 158.551L234.95 158.692L234.532 158.054L241.27 155.466Z" fill="#C4D7FF"/>
<path d="M234.287 158.058L237.439 156.758L237.521 158.092L247.883 157.669L247.97 158.783H234.378L234.287 158.058Z" fill="#0083AF"/>
<path d="M240.408 156.708L242.023 156.331C242.023 156.331 242.301 153.644 241.609 153.623C240.802 153.602 240.408 156.708 240.408 156.708Z" fill="#C4D7FF"/>
<path d="M248.517 151.925L239.572 151.822L233.542 82.2099C233.542 82.2099 239.692 74.0184 246.239 74.0184L248.621 75.4844L248.517 151.925Z" fill="#C6D0D6"/>
<path d="M248.773 151.925H248.255L248.363 94.4476L244.806 92.8905L245.013 92.4142L248.881 94.108V94.2778L248.773 151.925Z" fill="#0083AF"/>
<path d="M262.308 93.1265C261.117 93.1194 259.947 92.812 258.907 92.2329C257.867 91.6538 256.99 90.8216 256.356 89.8134L256.8 89.5484C257.446 90.5864 258.371 91.4218 259.47 91.9593C260.568 92.4968 261.795 92.7147 263.012 92.5881L263.074 93.1016C262.819 93.1249 262.563 93.1332 262.308 93.1265Z" fill="#0083AF"/>
<path d="M247.407 55.9995L239.281 56.3971L239.021 51.7588L246.657 51.179L247.407 55.9995Z" fill="#FFA87C"/>
<path d="M259.048 59.4865C257.744 53.8916 252.174 50.1603 246.554 50.856L246.107 50.9098C246.02 51.6758 245.673 52.3888 245.123 52.9294C244.574 53.4699 243.855 53.8053 243.088 53.8792C242.988 53.8792 242.889 53.8792 242.789 53.8999C242.043 53.91 241.311 53.7028 240.68 53.3034C240.05 52.9041 239.55 52.33 239.24 51.6511L238.147 51.7505C232.494 52.2558 228.287 57.0266 228.784 62.7085C229.667 71.9271 230.55 81.1457 231.434 90.3642L265.169 86.7779C263.134 77.6807 261.094 68.5836 259.048 59.4865Z" fill="#C4D7FF"/>
<path d="M231.177 90.3933L228.523 62.7375C228.018 56.9603 232.25 52.0197 238.127 51.4979L238.172 52.0114C232.569 52.5125 228.56 57.2005 229.061 62.6919L231.712 90.3436L231.177 90.3933Z" fill="#0083AF"/>
<path d="M242.727 56.9065C241.764 56.9153 240.815 56.677 239.971 56.2144C239.126 55.7519 238.414 55.0804 237.903 54.2643L238.342 53.991C238.91 54.9037 239.751 55.6146 240.745 56.0234C241.739 56.4321 242.837 56.5179 243.883 56.2687L243.986 56.7739C243.572 56.8606 243.151 56.905 242.727 56.9065V56.9065Z" fill="#0083AF"/>
<path d="M235.266 148.197C250.35 133.112 250.35 108.655 235.266 93.571C220.181 78.4865 195.724 78.4865 180.64 93.571C165.556 108.655 165.556 133.112 180.64 148.197C195.724 163.281 220.181 163.281 235.266 148.197Z" fill="#FFCD32"/>
<path d="M232.401 145.333C245.904 131.83 245.904 109.938 232.401 96.4349C218.899 82.9322 197.006 82.9322 183.504 96.4349C170.001 109.938 170.001 131.83 183.504 145.333C197.006 158.835 218.899 158.835 232.401 145.333Z" fill="#C6D0D6"/>
<path d="M223.777 90.1654L177.241 136.706C180.503 143.079 185.657 148.287 191.996 151.614L238.665 104.921C235.34 98.5864 230.141 93.4331 223.777 90.1654Z" fill="#FEFEFE"/>
<path d="M207.733 120.844V97.4335H208.251V120.045L220.029 114.794L220.236 115.27L207.733 120.844Z" fill="#0083AF"/>
<path d="M207.953 152.252C201.748 152.252 195.682 150.412 190.522 146.965C185.362 143.517 181.341 138.617 178.966 132.884C176.592 127.151 175.97 120.843 177.181 114.757C178.392 108.671 181.38 103.08 185.768 98.6923C190.155 94.3044 195.746 91.3163 201.832 90.1057C207.918 88.8951 214.226 89.5164 219.959 91.8911C225.692 94.2658 230.592 98.2871 234.04 103.447C237.487 108.606 239.327 114.672 239.327 120.878C239.319 129.196 236.01 137.171 230.128 143.053C224.246 148.935 216.271 152.243 207.953 152.252V152.252ZM207.953 90.0246C201.85 90.0246 195.884 91.8345 190.809 95.2253C185.735 98.6161 181.78 103.436 179.444 109.074C177.109 114.713 176.498 120.917 177.689 126.903C178.88 132.889 181.819 138.387 186.135 142.702C190.451 147.018 195.95 149.956 201.935 151.146C207.921 152.336 214.126 151.725 219.764 149.389C225.402 147.053 230.221 143.097 233.612 138.022C237.002 132.947 238.811 126.981 238.81 120.878C238.8 112.698 235.546 104.855 229.761 99.0721C223.976 93.2888 216.133 90.0364 207.953 90.0288V90.0246Z" fill="#0083AF"/>
<path d="M230.593 92.5012C230.546 92.4366 230.514 92.363 230.497 92.285C230.481 92.2071 230.48 92.1265 230.497 92.0485C230.513 91.9705 230.546 91.8968 230.592 91.8321C230.639 91.7674 230.698 91.7132 230.767 91.6729C230.767 91.6729 229.347 92.6047 228.982 92.0498C228.692 91.6066 229.173 91.1345 229.173 91.1345C229.173 91.1345 227.955 91.9338 227.591 91.3789C227.226 90.8239 228.448 90.0246 228.448 90.0246C228.375 90.0727 228.294 90.1059 228.208 90.1223C228.122 90.1387 228.034 90.138 227.949 90.1203C227.863 90.1026 227.782 90.0682 227.71 90.0191C227.638 89.97 227.576 89.9072 227.529 89.8341C227.019 89.0597 229.926 87.4694 229.926 87.4694C229.926 87.4694 228.373 87.5937 228.27 86.8275C228.133 85.9703 234.068 84.7569 234.068 84.7569C234.395 84.7196 237.124 88.422 237.161 88.7491L233.745 91.1511L233.467 91.3333C233.467 91.3333 231.069 93.0602 230.593 92.5012Z" fill="#FFA87C"/>
<path d="M230.743 88.2306L228.083 89.975L228.367 90.4078L231.027 88.6635L230.743 88.2306Z" fill="#0083AF"/>
<path d="M231.47 89.3047L228.811 91.0495L229.095 91.4823L231.754 89.7375L231.47 89.3047Z" fill="#0083AF"/>
<path d="M232.194 90.4113L230.421 91.5745L230.705 92.0073L232.478 90.8441L232.194 90.4113Z" fill="#0083AF"/>
<path d="M248.413 57.9377C249.656 71.8277 243.572 77.4723 233.215 83.9825C233.115 84.0404 237.025 89.6478 237.124 89.5898C238.917 88.4924 260.316 80.2263 255.636 55.0139" fill="#C4D7FF"/>
<path d="M237.116 89.8672C236.925 89.8672 236.635 89.4738 235.26 87.5191C234.507 86.4465 233.521 85.0136 233.14 84.3966C232.978 84.1357 232.838 83.9079 233.078 83.7629C244.259 76.7475 249.345 71.0946 248.156 57.9625L248.674 57.9128C249.987 72.4074 242.938 78.1597 233.55 84.0777C234.076 84.9432 236.581 88.5337 237.169 89.2668C237.321 89.1839 237.524 89.0804 237.778 88.9562C255.843 79.9695 257.321 65.566 255.383 55.0635L255.892 54.9683C257.864 65.6446 256.364 80.2884 238.01 89.42C237.65 89.5981 237.389 89.7264 237.256 89.8093C237.216 89.8424 237.167 89.8626 237.116 89.8672V89.8672Z" fill="#0083AF"/>
<path d="M196.635 31.1101L219.072 31.1101C226.734 31.1101 232.946 24.8988 232.946 17.2367C232.946 9.5746 226.734 3.36325 219.072 3.36325L196.635 3.36325C188.973 3.36325 182.761 9.5746 182.761 17.2367C182.761 24.8988 188.973 31.1101 196.635 31.1101Z" fill="#FFCD32"/>
<path d="M224.087 39.0822L221.727 25.7968L211.394 30.228L224.087 39.0822Z" fill="#FFCD32"/>
<path d="M222.907 10.8466H214.823V11.3643H222.907V10.8466Z" fill="#0083AF"/>
<path d="M222.903 14.8886H192.592V15.4062H222.903V14.8886Z" fill="#0083AF"/>
<path d="M199.666 18.9263H192.592V19.444H199.666V18.9263Z" fill="#0083AF"/>
<path d="M222.903 18.9263H202.698V19.444H222.903V18.9263Z" fill="#0083AF"/>
<path d="M222.903 22.9683H202.698V23.486H222.903V22.9683Z" fill="#0083AF"/>
<path d="M108.118 82.0857C107.953 80.2308 107.135 78.4946 105.811 77.1858C104.486 75.8769 102.74 75.0804 100.883 74.9378L70.4816 72.6352L69.3262 87.4404L108.11 89.362L108.118 82.0857Z" fill="#0083AF"/>
<path d="M30.0205 88.4551L39.9763 159.309H134.908L127.085 103.621L124.952 88.4551H30.0205Z" fill="#0083AF"/>
<path d="M122.666 103.621H27.7344L29.8672 88.4551H124.799L122.666 103.621Z" fill="#C4D7FF"/>
<path d="M114.839 159.309H19.9072L27.7261 103.699H122.658L114.839 159.309Z" fill="white"/>
<path d="M115.066 159.57H19.6089L27.4774 103.438H122.956L122.914 103.737L115.066 159.57ZM20.2052 159.052H114.627L122.372 103.973H27.9495L20.2052 159.052Z" fill="#0083AF"/>
<path d="M102.543 131.521H90.02L91.7387 119.296H104.262L102.543 131.521Z" fill="#FFCD32"/>
<path d="M75.8154 143.626H63.292L65.0106 131.396H77.534L75.8154 143.626Z" fill="#FFCD32"/>
<path d="M50.851 143.626H38.3276L40.0463 131.396H52.5697L50.851 143.626Z" fill="#C4D7FF"/>
<path d="M41.9768 119.59H28.9316L30.7207 106.847H43.77L41.9768 119.59ZM29.528 119.072H41.5378L43.1944 107.364H31.1845L29.528 119.072Z" fill="#0083AF"/>
<path d="M54.4788 119.59H41.4336L43.2226 106.847H56.2678L54.4788 119.59ZM42.0258 119.072H54.0356L55.6922 107.364H43.6823L42.0258 119.072Z" fill="#0083AF"/>
<path d="M66.9773 119.59H53.9321L55.7253 106.847H68.7705L66.9773 119.59ZM54.5285 119.072H66.5383L68.1949 107.364H56.185L54.5285 119.072Z" fill="#0083AF"/>
<path d="M79.4802 119.59H66.4351L68.2241 106.847H81.2693L79.4802 119.59ZM67.0273 119.072H79.0371L80.6936 107.364H68.6838L67.0273 119.072Z" fill="#0083AF"/>
<path d="M91.9829 119.59H78.9336L80.7268 106.847H93.772L91.9829 119.59ZM79.5299 119.072H91.5398L93.1963 107.364H81.1865L79.5299 119.072Z" fill="#0083AF"/>
<path d="M104.486 119.59H91.4404L93.2295 106.847H106.279L104.486 119.59ZM92.0368 119.072H104.047L105.703 107.364H93.6933L92.0368 119.072Z" fill="#0083AF"/>
<path d="M116.984 119.59H103.935L105.728 106.847H118.773L116.984 119.59ZM104.531 119.072H116.541L118.198 107.364H106.188L104.531 119.072Z" fill="#0083AF"/>
<path d="M40.2661 131.782H27.2168L29.01 119.035H42.0552L40.2661 131.782ZM27.8131 131.264H39.823L41.4795 119.552H29.4697L27.8131 131.264Z" fill="#0083AF"/>
<path d="M52.7644 131.782H39.7192L41.5083 119.035H54.5576L52.7644 131.782ZM40.3156 131.264H52.3254L53.9613 119.536H41.9514L40.3156 131.264Z" fill="#0083AF"/>
<path d="M65.2671 131.782H52.2178L54.011 119.035H67.0561L65.2671 131.782ZM52.8141 131.264H64.824L66.4805 119.552H54.4707L52.8141 131.264Z" fill="#0083AF"/>
<path d="M77.7654 131.782H64.7285L66.5176 119.035H79.5669L77.7654 131.782ZM65.3166 131.264H77.3264L78.983 119.552H66.9731L65.3166 131.264Z" fill="#0083AF"/>
<path d="M90.2688 131.782H77.2236L79.0127 119.035H92.062L90.2688 131.782ZM77.8158 131.264H89.8257L91.4822 119.552H79.4724L77.8158 131.264Z" fill="#0083AF"/>
<path d="M115.253 131.782H102.208L103.997 119.035H117.046L115.253 131.782ZM102.829 131.264H114.839L116.496 119.552H104.486L102.829 131.264Z" fill="#0083AF"/>
<path d="M38.5515 143.97H25.5063L27.2954 131.223H40.3406L38.5515 143.97ZM26.0986 143.452H38.1084L39.7649 131.74H27.7551L26.0986 143.452Z" fill="#0083AF"/>
<path d="M51.0623 143.97H38.0171L39.8103 131.223H52.8555L51.0623 143.97ZM38.6134 143.452H50.6233L52.2798 131.74H40.27L38.6134 143.452Z" fill="#0083AF"/>
<path d="M63.553 143.97H50.5078L52.3051 131.227H65.3503L63.553 143.97ZM51.1 143.452H63.1099L64.7664 131.74H52.7565L51.1 143.452Z" fill="#0083AF"/>
<path d="M76.0552 143.97H63.0059L64.7991 131.223H77.8442L76.0552 143.97ZM63.6022 143.452H75.6121L77.2686 131.74H65.2587L63.6022 143.452Z" fill="#0083AF"/>
<path d="M88.5542 143.97H75.4966L77.2856 131.223H90.335L88.5542 143.97ZM76.1054 143.452H88.1152L89.7717 131.74H77.7619L76.1054 143.452Z" fill="#0083AF"/>
<path d="M101.056 143.97H88.0068L89.8 131.223H102.829L101.056 143.97ZM88.6032 143.452H100.613L102.27 131.74H90.2597L88.6032 143.452Z" fill="#0083AF"/>
<path d="M113.555 143.97H100.51L102.303 131.223H115.348L113.555 143.97ZM101.106 143.452H113.116L114.772 131.74H102.763L101.106 143.452Z" fill="#0083AF"/>
<path d="M36.8372 156.162H23.792L25.581 143.419H38.6386L36.8372 156.162ZM24.3883 155.644H36.3982L38.0547 143.936H26.0449L24.3883 155.644Z" fill="#0083AF"/>
<path d="M49.3398 156.162H36.2905L38.0837 143.419H51.1289L49.3398 156.162ZM36.8869 155.644H48.8967L50.5533 143.936H38.5434L36.8869 155.644Z" fill="#0083AF"/>
<path d="M61.8303 156.162H48.7852L50.5742 143.419H63.6235L61.8303 156.162ZM49.4064 155.644H61.4162L63.0727 143.936H51.0629L49.4064 155.644Z" fill="#0083AF"/>
<path d="M74.3406 156.162H61.2954L63.072 143.419H76.1172L74.3406 156.162ZM61.8876 155.644H73.8975L75.554 143.936H63.5441L61.8876 155.644Z" fill="#0083AF"/>
<path d="M86.8391 156.162H73.7939L75.5871 143.419H88.6323L86.8391 156.162ZM74.3903 155.644H86.4001L88.0567 143.936H76.0468L74.3903 155.644Z" fill="#0083AF"/>
<path d="M99.342 156.162H86.2969L88.0859 143.419H101.135L99.342 156.162ZM86.8891 155.644H98.8989L100.555 143.936H88.5456L86.8891 155.644Z" fill="#0083AF"/>
<path d="M111.845 156.162H98.7954L100.589 143.419H113.634L111.845 156.162ZM99.3918 155.644H111.402L113.058 143.936H101.048L99.3918 155.644Z" fill="#0083AF"/>
<path d="M80.7147 40.9375L71.8398 43.0454C75.1529 52.322 83.9946 60.5384 96.518 62.0293C99.0944 59.2062 101.186 55.9766 102.709 52.4711C91.8632 53.4402 83.887 47.605 80.7147 40.9375Z" fill="#0083AF"/>
<path d="M82.5368 88.7698H59.8009C52.8476 88.7698 51.5886 83.8996 51.6797 80.6487C51.7709 77.3978 53.0712 67.8851 53.0712 67.8851L82.5368 69.7404V88.7698Z" fill="white"/>
<path d="M82.7974 89.0266H59.8006C57.0508 89.0266 54.9304 88.277 53.4934 86.7986C51.5925 84.848 51.3772 82.1023 51.4227 80.6404C51.5097 77.4558 52.8059 67.9473 52.8184 67.852L52.8515 67.6118L82.8016 69.5003L82.7974 89.0266ZM53.2946 68.1585C53.0917 69.6576 52.0149 77.7788 51.9363 80.6529C51.899 82.0361 52.0978 84.6244 53.862 86.4507C55.1996 87.8256 57.1957 88.5214 59.8006 88.5214H82.2798V69.9848L53.2946 68.1585Z" fill="#0083AF"/>
<path d="M79.5053 116.421L74.5771 113.183L80.9051 93.5158L87.9454 94.2778L79.5053 116.421Z" fill="#FFA87C"/>
<path d="M84.3462 120.687L72.3115 117.096L74.8999 112.504L85.0213 120.202L84.3462 120.687Z" fill="#FFA87C"/>
<path d="M79.6128 116.086L73.7321 114.069L72.0093 117.258L84.3463 120.687L85.0213 120.202L79.6128 116.086Z" fill="#C4D7FF"/>
<path d="M85.257 120.273L82.7639 118.26L82.1179 119.474L72.2822 116.421L71.7231 117.42L84.8594 120.915L85.257 120.273Z" fill="#0083AF"/>
<path d="M79.9152 117.465L78.5195 116.699C78.5195 116.699 79.3934 114.152 80.0725 114.309C80.8801 114.487 79.9152 117.465 79.9152 117.465Z" fill="#C4D7FF"/>
<path d="M59.8008 88.7698L79.0579 89.2337L72.7673 108.611L86.1313 112.392L94.7039 84.9101C96.2196 79.866 92.4096 76.4908 88.6244 76.2133L65.3667 73.9108" fill="white"/>
<path d="M86.3053 112.711L72.4401 108.768L78.7059 89.4656L59.7925 89.01V88.4924L79.3975 88.9645L73.0861 108.429L85.9615 112.081L94.4595 84.8397C95.2298 82.2721 94.5051 80.4375 93.7596 79.3566C93.1644 78.5259 92.3942 77.8358 91.5034 77.3349C90.6126 76.8341 89.6228 76.5346 88.6037 76.4577L65.3419 74.1509L65.3916 73.6374L88.6492 75.94C89.7434 76.0242 90.8058 76.3466 91.7623 76.8846C92.7187 77.4225 93.546 78.163 94.1862 79.0543C94.9938 80.2304 95.7848 82.2141 94.9523 84.9847L86.3053 112.711Z" fill="#0083AF"/>
<path d="M78.4614 110.201L77.9686 110.044L86.0359 84.4049L62.596 83.9203C59.196 83.9203 57.0383 83.3198 55.8166 82.0277C54.3506 80.483 54.4707 78.139 54.5991 75.6584V75.5259C54.7647 72.3495 55.916 62.841 55.9285 62.7457L56.4461 62.7996C56.4461 62.8948 55.2824 72.3867 55.1209 75.5424V75.6791C54.9925 78.1639 54.8807 80.2801 56.1935 81.6633C57.2992 82.827 59.3947 83.3944 62.6084 83.3944L86.7358 83.9203L78.4614 110.201Z" fill="#0083AF"/>
<path d="M72.0135 35.7402H62.6831V40.5317H72.0135V35.7402Z" fill="#FFA87C"/>
<path d="M82.7359 45.5012C82.6282 39.7986 77.9361 35.4999 72.2625 35.5952H71.3472C71.2841 36.502 70.9002 37.3567 70.2643 38.0062C69.6284 38.6558 68.7821 39.0577 67.8768 39.1401V39.1401H67.5745C66.6897 39.1491 65.837 38.8089 65.2013 38.1934C64.5656 37.5779 64.1982 36.7366 64.1786 35.8519V35.5786H63.8183C58.1571 35.4834 53.0136 39.7821 52.3054 45.4847C51.237 54.7447 50.0815 73.2937 50.0815 73.2937L83.0382 73.2647C82.9333 64.0157 82.8325 54.7612 82.7359 45.5012Z" fill="#FFCD32"/>
<path d="M82.7686 64.2325C82.7189 59.6066 82.6733 57.1922 82.6236 54.8731C82.5739 52.5539 82.5242 50.1354 82.4787 45.5054C82.4512 43.7746 81.9638 42.0823 81.0665 40.6021C80.1974 39.1733 78.9751 37.9924 77.5174 37.173C76.7781 36.7554 75.9892 36.4326 75.1692 36.2123C74.3257 35.9809 73.4555 35.8611 72.5809 35.8561C72.3034 35.8561 72.0301 35.8561 71.7526 35.8561H71.5828C71.467 36.78 71.038 37.6363 70.3672 38.2821C69.6965 38.928 68.8247 39.3244 67.8971 39.4052C67.4009 39.4513 66.9005 39.395 66.4269 39.2399C65.9534 39.0847 65.5167 38.834 65.144 38.5032C64.7713 38.1724 64.4705 37.7687 64.2602 37.3169C64.0499 36.8651 63.9346 36.375 63.9214 35.8768C63.9214 35.7857 63.9214 35.678 63.9214 35.5869H64.4391C64.4391 35.6656 64.4391 35.765 64.4391 35.8437C64.4508 36.2711 64.5501 36.6915 64.7308 37.0789C64.9115 37.4664 65.1698 37.8127 65.4896 38.0964C65.8094 38.3802 66.184 38.5953 66.5903 38.7285C66.9965 38.8617 67.4258 38.9102 67.8515 38.871C68.6956 38.7901 69.4839 38.4131 70.0766 37.8067C70.6694 37.2003 71.0284 36.4037 71.09 35.5579V35.3177H71.7319C72.0135 35.3177 72.291 35.3177 72.5602 35.3177C73.4792 35.3265 74.3935 35.4518 75.281 35.6905C76.1484 35.9218 76.9832 36.2613 77.7658 36.7009C78.5284 37.1345 79.2338 37.6618 79.8655 38.2705C80.5022 38.8779 81.0589 39.564 81.522 40.3122C81.9865 41.0725 82.3472 41.8914 82.5946 42.7473C82.8558 43.6354 82.9951 44.5549 83.0088 45.4805C83.0543 50.1064 83.104 52.5208 83.1537 54.8399C83.2034 57.1591 83.249 59.5776 83.2987 64.2076L82.7686 64.2325Z" fill="#0083AF"/>
<path d="M53.1125 69.5209L53.0835 70.0377L80.0632 71.5508L80.0922 71.034L53.1125 69.5209Z" fill="#0083AF"/>
<path d="M79.6128 59.3747C78.1264 58.759 76.5411 58.4167 74.9331 58.3642V63.8018C77.6457 63.8597 80.5322 63.9136 83.1081 63.9798C82.9756 61.9257 81.4101 60.2154 79.6128 59.3747Z" fill="#FFA87C"/>
<path d="M50.6487 57.4821C47.3895 50.9636 50.7688 40.8712 58.6539 36.7465C58.6539 36.7465 61.967 40.8878 63.8306 42.5443C52.7194 54.931 59.801 58.0991 75.6499 55.8835L76.3498 64.3567C76.3498 64.3567 66.2284 65.2843 63.4371 64.8702C58.4882 64.1579 53.1004 62.3854 50.6487 57.4821Z" fill="#FFCD32"/>
<path d="M67.9096 65.4293C61.6976 65.4293 53.8291 64.0337 50.4166 57.6022C47.7454 52.5829 48.9961 43.9359 55.7051 38.1628L56.0447 38.577C49.5304 44.1843 48.3004 52.5415 50.8721 57.3786C56.3594 67.6988 73.8979 64.6011 76.0721 64.1704C75.9769 62.9818 75.5213 57.5194 75.4136 56.2107C66.3027 57.83 60.0452 56.9479 58.2023 53.7839C56.8854 51.5228 57.9041 48.3629 61.2255 44.3997L61.6396 44.731C58.5212 48.4582 57.4983 51.4979 58.6703 53.523C60.3889 56.4758 66.7251 57.2502 75.6207 55.6475L75.9023 55.5978L75.9272 55.8836C76.6312 64.365 76.6312 64.365 76.6312 64.3774V64.5845L76.4283 64.6301C73.6213 65.1716 70.7683 65.4393 67.9096 65.4293Z" fill="#0083AF"/>
<path d="M85.6134 46.0686L81.4514 63.6444L70.0793 64.3153L69.8267 66.1458H106.366L110.954 46.0686H85.6134Z" fill="#C6D0D6"/>
<path d="M96.2025 58.2027C95.8978 58.2076 95.5958 58.1451 95.3181 58.0199C95.0403 57.8946 94.7936 57.7095 94.5956 57.478C94.3728 57.2005 94.2129 56.8779 94.1271 56.5325C94.0413 56.1871 94.0316 55.8272 94.0987 55.4777C94.3347 54.0241 95.6351 52.8397 96.9976 52.8397C97.3016 52.8354 97.6027 52.8982 97.8797 53.0234C98.1567 53.1487 98.4027 53.3334 98.6003 53.5644C98.8233 53.841 98.9832 54.1629 99.0691 54.5076C99.1549 54.8524 99.1645 55.2117 99.0972 55.5605C98.8695 57.0017 97.5691 58.2027 96.2025 58.2027ZM96.9934 53.3573C96.4049 53.3995 95.8481 53.6406 95.4147 54.0409C94.9812 54.4413 94.6967 54.9772 94.608 55.5605C94.5547 55.8361 94.5612 56.12 94.6269 56.3929C94.6926 56.6658 94.8161 56.9214 94.989 57.1425C95.1393 57.3162 95.3258 57.4548 95.5355 57.5486C95.7452 57.6423 95.9728 57.6889 96.2025 57.685C97.3165 57.685 98.3849 56.6953 98.5837 55.4777C98.637 55.2021 98.6306 54.9183 98.5649 54.6454C98.4991 54.3725 98.3756 54.1168 98.2027 53.8957C98.0541 53.7247 97.8701 53.588 97.6634 53.4951C97.4568 53.4021 97.2324 53.3551 97.0059 53.3573H96.9934Z" fill="#0083AF"/>
<path d="M70.0961 64.5721L70.063 64.0544L81.2446 63.3959L85.361 46.0107L85.8663 46.1307L81.6587 63.8929L70.0961 64.5721Z" fill="#0083AF"/>
<path d="M105.467 64.1911C105.471 64.1121 105.491 64.0349 105.526 63.9642C105.562 63.8934 105.611 63.8308 105.672 63.7802C105.733 63.7296 105.803 63.6922 105.879 63.6702C105.955 63.6483 106.035 63.6423 106.113 63.6527C106.113 63.6527 104.423 63.4995 104.481 62.8244C104.531 62.2944 105.202 62.224 105.202 62.224C105.202 62.224 103.748 62.0914 103.811 61.433C103.873 60.7745 105.322 60.9029 105.322 60.9029C105.235 60.8951 105.151 60.8702 105.074 60.8298C104.997 60.7893 104.928 60.734 104.872 60.6671C104.817 60.6002 104.775 60.5229 104.749 60.4397C104.723 60.3565 104.714 60.269 104.722 60.1823C104.804 59.2588 107.732 59.6605 108.569 60.2568C109.836 61.1596 108.83 64.4561 107.637 65.1312C107.124 65.4376 105.492 64.9241 105.467 64.1911Z" fill="#FFA87C"/>
<path d="M105.071 60.632L105.024 61.1476L108.192 61.433L108.239 60.9175L105.071 60.632Z" fill="#0083AF"/>
<path d="M104.952 61.951L104.905 62.4666L108.073 62.7521L108.119 62.2365L104.952 61.951Z" fill="#0083AF"/>
<path d="M105.887 63.3653L105.841 63.8809L107.953 64.0713L107.999 63.5557L105.887 63.3653Z" fill="#0083AF"/>
<path d="M67.5989 38.4693C68.2088 38.4788 68.7987 38.2524 69.2456 37.8372C69.6924 37.422 69.9615 36.8502 69.9967 36.2412L69.976 34.9491V28.2112L65.4495 28.1615L65.3667 36.2164C65.3656 36.8107 65.5998 37.3812 66.018 37.8033C66.4363 38.2255 67.0046 38.4649 67.5989 38.4693V38.4693Z" fill="#FFA87C"/>
<path d="M69.9967 35.4875L64.1616 31.3669L70.357 27.6521L69.9967 35.4875Z" fill="#0083AF"/>
<path d="M70.2822 33.9552C74.0963 33.8641 75.7611 29.963 75.4091 25.8713C74.995 20.9018 72.1375 16.7604 67.0892 17.8082C57.883 19.7298 60.8731 34.183 70.2822 33.9552Z" fill="#FFA87C"/>
<path d="M67.7107 25.9004C67.7247 25.9883 67.7643 26.0701 67.8247 26.1355C67.8851 26.2009 67.9634 26.2471 68.0499 26.2681C68.1364 26.2891 68.2272 26.2841 68.3108 26.2536C68.3945 26.2232 68.4673 26.1687 68.52 26.097C68.5728 26.0253 68.6032 25.9396 68.6074 25.8507C68.6116 25.7618 68.5894 25.6736 68.5436 25.5973C68.4978 25.5209 68.4305 25.4598 68.3501 25.4217C68.2697 25.3835 68.1798 25.3699 68.0917 25.3827C68.0325 25.3913 67.9756 25.4116 67.9243 25.4423C67.873 25.4731 67.8284 25.5137 67.7929 25.5619C67.7575 25.61 67.732 25.6648 67.7178 25.7229C67.7037 25.781 67.7013 25.8413 67.7107 25.9004Z" fill="#0083AF"/>
<path d="M72.4856 25.6312C72.4996 25.7191 72.5392 25.8009 72.5996 25.8663C72.66 25.9317 72.7383 25.9779 72.8248 25.9989C72.9113 26.0199 73.0021 26.0149 73.0857 25.9844C73.1694 25.954 73.2422 25.8995 73.2949 25.8278C73.3477 25.7561 73.3781 25.6704 73.3823 25.5815C73.3865 25.4926 73.3643 25.4044 73.3185 25.3281C73.2727 25.2517 73.2054 25.1906 73.125 25.1525C73.0446 25.1143 72.9547 25.1007 72.8666 25.1135C72.8074 25.1221 72.7505 25.1423 72.6992 25.1731C72.6479 25.2039 72.6033 25.2445 72.5678 25.2927C72.5324 25.3408 72.5069 25.3955 72.4927 25.4537C72.4786 25.5118 72.4762 25.5721 72.4856 25.6312Z" fill="#0083AF"/>
<path d="M66.957 25.2916L66.4932 25.0638C66.6287 24.7589 66.8338 24.4899 67.0919 24.2785C67.3501 24.0671 67.6542 23.919 67.9799 23.8463C68.2681 23.8005 68.5632 23.8256 68.8395 23.9194C69.1159 24.0132 69.3652 24.1729 69.566 24.3846L69.2057 24.7574C69.0662 24.6003 68.8899 24.4802 68.6926 24.408C68.4953 24.3357 68.2831 24.3135 68.0752 24.3432C67.8285 24.4049 67.5993 24.5225 67.4054 24.687C67.2115 24.8514 67.0581 25.0583 66.957 25.2916V25.2916Z" fill="#0083AF"/>
<path d="M70.651 29.6358C70.5037 29.6362 70.3567 29.6224 70.212 29.5944C69.8365 29.5237 69.4793 29.377 69.1624 29.1633C68.8455 28.9497 68.5756 28.6736 68.3691 28.352L68.8081 28.0746C68.9748 28.3364 69.1935 28.5613 69.4507 28.7351C69.7079 28.9089 69.998 29.028 70.3031 29.0851C70.5665 29.1336 70.8371 29.1255 71.097 29.0612C71.357 28.9969 71.6002 28.878 71.8106 28.7123L72.1253 29.1265C71.7047 29.4564 71.1856 29.6357 70.651 29.6358V29.6358Z" fill="#0083AF"/>
<path d="M71.4381 28.1698L71.3594 27.6563L72.0965 27.5444L71.5582 24.6165L71.5913 24.542C71.6886 24.2914 71.8493 24.0704 72.0576 23.9005C72.2659 23.7306 72.5148 23.6178 72.7799 23.5729C73.0911 23.555 73.4019 23.6158 73.6835 23.7497C73.965 23.8836 74.2083 24.0863 74.3908 24.3391L73.9767 24.6662C73.8481 24.4835 73.6766 24.3351 73.4774 24.234C73.2781 24.133 73.0571 24.0823 72.8337 24.0864C72.668 24.1162 72.5125 24.1871 72.3815 24.2928C72.2505 24.3985 72.1482 24.5355 72.0841 24.6911L72.6887 27.9751L71.4381 28.1698Z" fill="#0083AF"/>
<path d="M62.1901 27.5983L65.7061 22.6287C65.7061 22.6287 74.6472 23.6765 76.2996 21.3863C77.542 19.6221 76.2996 16.5948 71.5081 16.5948C53.1537 16.5741 62.1901 27.5983 62.1901 27.5983Z" fill="#0083AF"/>
<path d="M64.1198 26.9978C64.083 27.3698 63.937 27.7225 63.7 28.0116C63.4631 28.3006 63.1459 28.5131 62.7884 28.6221C62.4308 28.7311 62.0491 28.7318 61.6911 28.6242C61.3332 28.5165 61.0152 28.3053 60.7772 28.0171C60.5391 27.7289 60.3918 27.3767 60.3536 27.0049C60.3155 26.6331 60.3883 26.2583 60.5629 25.9278C60.7375 25.5973 61.006 25.3259 61.3346 25.1478C61.6632 24.9698 62.0372 24.893 62.4094 24.9271C62.6582 24.9494 62.9001 25.0209 63.1211 25.1373C63.3421 25.2537 63.5378 25.4128 63.6969 25.6054C63.8559 25.798 63.9752 26.0202 64.0478 26.2592C64.1204 26.4983 64.1449 26.7493 64.1198 26.9978V26.9978Z" fill="#FFA87C"/>
<path d="M63.9419 26.915C62.8818 27.0682 61.1714 23.6351 61.1714 23.6351C61.1714 22.8689 65.8552 20.8604 65.9588 21.6182C65.9712 21.6182 65.0311 26.77 63.9419 26.915Z" fill="#0083AF"/>
<path d="M111.347 97.7731C109.451 97.7731 107.598 97.2108 106.021 96.1574C104.444 95.1039 103.216 93.6066 102.49 91.8548C101.764 90.103 101.575 88.1753 101.944 86.3156C102.314 84.4558 103.227 82.7476 104.568 81.4068C105.909 80.066 107.617 79.1529 109.477 78.783C111.337 78.4131 113.264 78.6029 115.016 79.3285C116.768 80.0542 118.265 81.283 119.319 82.8596C120.372 84.4362 120.935 86.2898 120.935 88.1859H120.417C120.417 86.3921 119.885 84.6387 118.888 83.1472C117.892 81.6557 116.475 80.4932 114.818 79.8068C113.161 79.1203 111.337 78.9407 109.578 79.2907C107.819 79.6406 106.203 80.5044 104.934 81.7728C103.666 83.0412 102.802 84.6572 102.452 86.4166C102.102 88.1759 102.282 89.9994 102.968 91.6567C103.655 93.3139 104.817 94.7304 106.309 95.7269C107.8 96.7235 109.554 97.2554 111.347 97.2554V97.7731Z" fill="#0083AF"/>
<path d="M111.22 99.2805C112.125 99.2805 112.86 98.5463 112.86 97.6406C112.86 96.7348 112.125 96.0006 111.22 96.0006C110.314 96.0006 109.58 96.7348 109.58 97.6406C109.58 98.5463 110.314 99.2805 111.22 99.2805Z" fill="#0083AF"/>
<path d="M36.4607 97.7731C34.5645 97.7731 32.711 97.2108 31.1344 96.1574C29.5578 95.1039 28.3289 93.6066 27.6033 91.8548C26.8777 90.103 26.6878 88.1753 27.0578 86.3156C27.4277 84.4558 28.3408 82.7476 29.6816 81.4068C31.0223 80.066 32.7306 79.1529 34.5903 78.783C36.4501 78.4131 38.3777 78.6029 40.1296 79.3285C41.8814 80.0542 43.3787 81.283 44.4322 82.8596C45.4856 84.4362 46.0479 86.2898 46.0479 88.1859H45.5302C45.531 86.391 44.9995 84.6361 44.0028 83.1433C43.006 81.6505 41.589 80.4869 39.9308 79.7996C38.2727 79.1124 36.4479 78.9323 34.6874 79.2823C32.9269 79.6323 31.3098 80.4965 30.0405 81.7658C28.7713 83.035 27.907 84.6521 27.5571 86.4126C27.2071 88.1731 27.3871 89.9979 28.0744 91.656C28.7617 93.3142 29.9253 94.7313 31.4181 95.728C32.9109 96.7247 34.6658 97.2563 36.4607 97.2554V97.7731Z" fill="#0083AF"/>
<path d="M36.3319 99.2805C37.2376 99.2805 37.9718 98.5463 37.9718 97.6406C37.9718 96.7348 37.2376 96.0006 36.3319 96.0006C35.4261 96.0006 34.6919 96.7348 34.6919 97.6406C34.6919 98.5463 35.4261 99.2805 36.3319 99.2805Z" fill="#0083AF"/>
<path d="M57.3861 98.0257C55.3867 98.0258 53.4373 97.4008 51.8107 96.2382C50.1841 95.0756 48.9616 93.4335 48.3145 91.5417C47.6673 89.65 47.6278 87.6032 48.2014 85.6879C48.7751 83.7725 49.9332 82.0845 51.5137 80.8599L51.8326 81.274C50.3362 82.432 49.2394 84.029 48.6958 85.8413C48.1522 87.6537 48.1891 89.5907 48.8013 91.3811C49.4134 93.1714 50.5702 94.7255 52.1096 95.8256C53.649 96.9258 55.494 97.5169 57.3861 97.5163V98.0257Z" fill="#0083AF"/>
<path d="M57.2625 99.5332C58.1683 99.5332 58.9025 98.7989 58.9025 97.8932C58.9025 96.9875 58.1683 96.2532 57.2625 96.2532C56.3568 96.2532 55.6226 96.9875 55.6226 97.8932C55.6226 98.7989 56.3568 99.5332 57.2625 99.5332Z" fill="#0083AF"/>
<path d="M88.8933 32.3443L89.8209 27.1179C87.911 26.5668 86.2649 25.3435 85.1861 23.6738C84.1073 22.0042 83.6688 20.0007 83.9513 18.033C84.2339 16.0654 85.2184 14.2662 86.7234 12.9675C88.2284 11.6689 90.1522 10.9582 92.1401 10.9668H105.04C107.192 11.015 109.24 11.9038 110.745 13.4429C112.25 14.982 113.093 17.0491 113.093 19.2018C113.093 21.3544 112.25 23.4215 110.745 24.9606C109.24 26.4997 107.192 27.3885 105.04 27.4368H95.9045L88.8933 32.3443ZM92.1401 11.4968C90.2638 11.4968 88.4517 12.1801 87.0426 13.4191C85.6335 14.6581 84.7239 16.3678 84.4839 18.2287C84.2439 20.0896 84.6898 21.9743 85.7384 23.5302C86.7869 25.0862 88.3663 26.207 90.1812 26.6831L90.4131 26.7411L89.6221 31.2054L95.743 26.9316H105.04C107.056 26.8849 108.974 26.0513 110.383 24.6091C111.792 23.1669 112.581 21.2306 112.581 19.2142C112.581 17.1978 111.792 15.2615 110.383 13.8193C108.974 12.3771 107.056 11.5435 105.04 11.4968H92.1401Z" fill="#0083AF"/>
<path d="M140.726 35.7443C140.822 35.3715 142.491 34.5019 144.603 33.3754C145.812 32.7335 147.162 32.0212 148.578 31.2219H134.651C135.856 33.0069 136.771 34.3859 136.684 34.7338C134.473 43.5797 128.402 46.3792 123.498 48.6321C119.929 50.2886 116.843 51.6925 116.044 54.9476L114.992 59.151L148.384 67.5L149.436 63.2924C150.264 60.0414 148.193 57.3371 145.816 54.2104C142.586 49.9242 138.519 44.5777 140.726 35.7443Z" fill="#C4D7FF"/>
<path d="M148.529 67.7195L114.765 59.2836L117.076 50.0194C118.463 44.4701 127.396 39.7572 132.73 36.9411C134.527 35.9928 136.382 35.0154 136.511 34.6882C136.552 34.3487 135.372 32.6176 134.233 30.9279C130.85 25.9418 125.193 17.5763 126.567 12.0269L128.882 2.75034L162.647 11.1986L160.332 20.4628C158.948 26.0122 150.016 30.725 144.677 33.537C142.884 34.4853 141.025 35.4668 140.901 35.794C140.859 36.1336 142.039 37.8646 143.178 39.5502C146.562 44.5446 152.227 52.9059 150.844 58.4512L148.529 67.7195ZM115.398 58.9067L148.16 67.09L150.347 58.3269C151.68 53.0053 146.094 44.7641 142.756 39.8401C140.992 37.2393 140.271 36.1626 140.408 35.6615C140.544 35.1604 141.65 34.5474 144.446 33.0814C149.705 30.3067 158.526 25.6602 159.839 20.3386L162.03 11.5755L129.259 3.3881L127.069 12.1511C125.739 17.4769 131.326 25.714 134.66 30.638C136.424 33.2388 137.144 34.3155 137.012 34.8166C136.879 35.3177 135.769 35.9306 132.974 37.4008C127.715 40.1755 118.894 44.8179 117.581 50.1437L115.398 58.9067Z" fill="#0083AF"/>
<path d="M135.765 30.0334C132.998 25.9418 127.263 17.4148 128.621 11.8985L129.122 12.0228C127.801 17.3154 133.47 25.7099 136.195 29.7435L135.765 30.0334Z" fill="#0083AF"/>
<path d="M164.106 9.46025L128.412 0.540878L127.281 5.06491L162.975 13.9843L164.106 9.46025Z" fill="#FFCD32"/>
<path d="M150.16 65.2605L114.466 56.3411L113.336 60.8652L149.03 69.7845L150.16 65.2605Z" fill="#FFCD32"/>
<path d="M156.6 65.7979C146.868 65.7979 140.035 60.439 136.784 57.8797C136.266 57.4655 135.86 57.1549 135.562 56.952C135.359 56.8195 135.409 56.6745 135.666 56.2314L132.506 54.2394C131.706 53.7508 129.859 52.5208 130.253 51.7339C130.322 51.6016 130.429 51.4923 130.559 51.4192C130.145 51.0341 129.756 50.4998 130.058 50.0484C130.159 49.9018 130.304 49.7914 130.472 49.7337C129.93 49.1622 130.004 48.7605 130.166 48.5244C130.327 48.2884 130.663 48.0689 131.408 48.3546C131.413 48.1819 131.466 48.0139 131.561 47.8701C131.613 47.7946 131.68 47.7308 131.757 47.6829C131.835 47.6351 131.922 47.6043 132.013 47.5926C132.622 47.4974 133.669 48.1103 134.353 48.5865C134.245 48.1186 134.245 47.5719 134.692 47.2903C134.933 47.1412 135.554 46.7519 138.788 51.3322C139.202 50.7524 139.202 50.7442 139.326 50.7235C139.396 50.7112 139.467 50.7261 139.525 50.7649C148.131 56.7946 154.364 59.6273 162.65 57.3289C162.683 57.3188 162.717 57.3155 162.751 57.3191C162.785 57.3227 162.818 57.3331 162.848 57.3497C162.878 57.3664 162.904 57.3889 162.925 57.4159C162.946 57.4429 162.961 57.4739 162.969 57.507C162.987 57.5728 162.979 57.6431 162.945 57.7028C162.912 57.7624 162.857 57.8066 162.791 57.8258C154.368 60.1615 148.056 57.3496 139.422 51.3239C139.347 51.4358 139.215 51.618 139.008 51.9327C138.984 51.9684 138.952 51.9977 138.915 52.018C138.877 52.0382 138.835 52.0488 138.792 52.0487C138.751 52.0486 138.71 52.0383 138.673 52.0188C138.636 51.9994 138.605 51.9712 138.581 51.9369C136.651 49.1746 135.297 47.7376 134.949 47.7376C134.634 47.9446 134.928 48.8019 135.127 49.187C135.154 49.2398 135.162 49.3001 135.15 49.3581C135.138 49.416 135.106 49.4681 135.061 49.5059C135.015 49.5429 134.958 49.5631 134.899 49.5631C134.841 49.5631 134.784 49.5429 134.738 49.5059C133.997 48.922 132.626 48.0192 132.104 48.1061C132.029 48.1061 132.009 48.1434 132 48.1558C131.942 48.2455 131.921 48.3541 131.941 48.4591C131.961 48.5641 132.021 48.6572 132.108 48.7191C132.145 48.7331 132.179 48.7554 132.206 48.7844C132.233 48.8133 132.254 48.8481 132.265 48.8861C132.277 48.9241 132.28 48.9643 132.274 49.0036C132.268 49.0429 132.253 49.0803 132.23 49.1128C132.207 49.1454 132.177 49.1724 132.142 49.1916C132.108 49.2108 132.069 49.2218 132.029 49.2238C131.989 49.2258 131.95 49.2186 131.913 49.2029C131.877 49.1872 131.844 49.1634 131.818 49.1332V49.1332C131.404 48.864 130.741 48.5865 130.597 48.8019C130.452 49.0172 130.741 49.2491 130.853 49.3692C131.01 49.5243 131.182 49.663 131.367 49.7834C131.421 49.8191 131.46 49.8739 131.475 49.9369C131.49 49.9999 131.481 50.0664 131.45 50.123C131.419 50.1791 131.368 50.2219 131.308 50.2432C131.248 50.2646 131.182 50.2631 131.122 50.2389C131.122 50.2389 130.708 50.0691 130.518 50.3259C130.394 50.5123 130.932 51.092 131.487 51.4606C131.524 51.4746 131.558 51.497 131.585 51.5259C131.612 51.5549 131.632 51.5897 131.644 51.6277C131.656 51.6657 131.659 51.7059 131.653 51.7452C131.647 51.7845 131.632 51.8218 131.609 51.8544C131.586 51.887 131.556 51.9139 131.521 51.9331C131.486 51.9524 131.448 51.9634 131.408 51.9654C131.368 51.9673 131.328 51.9602 131.292 51.9445C131.255 51.9288 131.223 51.9049 131.197 51.8747V51.8747C131.154 51.8459 131.105 51.8262 131.054 51.8169C131.002 51.8077 130.95 51.809 130.899 51.8209C130.835 51.8379 130.779 51.8795 130.746 51.9369C130.646 52.1398 131.545 53.0012 132.816 53.7756L133.102 53.9661L136.183 55.896C136.24 55.9319 136.282 55.9887 136.298 56.0544C136.314 56.1201 136.304 56.1895 136.27 56.248C136.167 56.4219 136.105 56.542 136.059 56.6166C136.349 56.8236 136.705 57.1052 137.136 57.4448C141.066 60.526 150.264 67.7526 163.491 64.365C163.558 64.348 163.628 64.358 163.687 64.393C163.746 64.4279 163.789 64.4849 163.806 64.5513C163.823 64.6178 163.813 64.6883 163.778 64.7473C163.743 64.8063 163.686 64.8491 163.619 64.8661C161.328 65.4725 158.97 65.7856 156.6 65.7979V65.7979Z" fill="#0083AF"/>
<path d="M177.067 156.423L182.38 153.71L181.349 134.258L174.358 134.287L177.067 156.423Z" fill="#FFA87C"/>
<path d="M170.54 158.907H183.469L182.38 153.71L170.084 158.257L170.54 158.907Z" fill="#FFA87C"/>
<path d="M174.735 156.298C176.938 159.972 183.018 156.336 183.018 156.336L183.572 158.99H169.977L169.84 158.257L174.735 156.298Z" fill="#0083AF"/>
<path d="M170.034 143.555H186.521C186.521 143.555 187.225 72.5689 161.47 73.567L170.034 143.555Z" fill="#C4D7FF"/>
<path d="M183.353 143.555H182.835C182.835 143.046 183.158 92.6171 167.955 77.8533C165.056 75.0247 161.71 73.6581 158.049 73.7989V73.2812C161.859 73.1363 165.317 74.5485 168.332 77.4805C183.68 92.4266 183.357 143.058 183.353 143.555Z" fill="#0083AF"/>
<path d="M182.148 45.8574C182.02 47.1868 179.663 47.9612 179.249 49.0794C178.765 50.3218 179.941 52.3924 179.15 53.3366C178.322 54.3471 175.899 53.7176 174.781 54.372C173.663 55.0263 173.211 57.333 171.882 57.6022C170.552 57.8714 169.119 55.9457 167.74 55.8256C166.361 55.7055 164.535 57.2626 163.334 56.7615C162.133 56.2604 162.092 53.8999 161.127 53.0343C160.162 52.1688 157.677 52.322 157.048 51.1666C156.455 50.0816 158.012 48.2677 157.781 46.9673C157.569 45.787 155.416 44.5736 155.548 43.2401C155.681 41.9066 158.033 41.1197 158.472 39.985C158.953 38.7426 157.772 36.6719 158.563 35.6905C159.354 34.709 161.827 35.2515 162.936 34.5723C164.046 33.8931 164.477 31.5698 165.802 31.2592C167.128 30.9486 168.598 32.8619 169.989 32.9986C171.381 33.1353 173.228 31.5823 174.433 32.1082C175.638 32.6342 175.63 35.0071 176.603 35.8975C177.576 36.7879 180.048 36.6761 180.674 37.8481C181.262 38.9538 179.692 40.747 179.924 42.0764C180.127 43.2939 182.281 44.5198 182.148 45.8574Z" fill="#0083AF"/>
<path d="M157.723 156.423L163.036 153.71L162.001 134.258L155.014 134.287L157.723 156.423Z" fill="#FFA87C"/>
<path d="M151.195 158.907H164.125L163.035 153.71L150.74 158.257L151.195 158.907Z" fill="#FFA87C"/>
<path d="M155.391 156.298C157.594 159.972 163.674 156.336 163.674 156.336L164.228 158.99H150.633L150.492 158.257L155.391 156.298Z" fill="#0083AF"/>
<path d="M166.883 143.555H150.396C150.396 143.555 139.214 73.5422 163.213 73.5422L166.883 143.555Z" fill="#C4D7FF"/>
<path d="M166.556 143.51L163.785 89.362L160.435 87.9995L160.63 87.5233L164.286 89.01L164.295 89.1715L167.069 143.481L166.556 143.51Z" fill="#0083AF"/>
<path d="M145.994 81.4853C149.937 65.272 157.288 53.552 168.043 55.3038C179.282 57.1343 182.049 70.5025 180.645 87.1257L145.994 81.4853Z" fill="white"/>
<path d="M136.846 51.6114L136.114 52.3435L138.457 54.6862L139.189 53.9541L136.846 51.6114Z" fill="#FFCD32"/>
<path d="M147.147 51.6061L146.415 52.3382L148.757 54.6809L149.489 53.9488L147.147 51.6061Z" fill="#FFCD32"/>
<path d="M144.825 46.0688L142.482 48.4115L143.215 49.1436L145.557 46.8009L144.825 46.0688Z" fill="#FFCD32"/>
<path d="M136.842 62.7015L136.11 63.4336L138.453 65.7763L139.185 65.0442L136.842 62.7015Z" fill="#FFCD32"/>
<path d="M147.143 62.6921L146.411 63.4242L148.753 65.7669L149.485 65.0348L147.143 62.6921Z" fill="#FFCD32"/>
<path d="M157.447 62.6909L156.715 63.423L159.058 65.7657L159.79 65.0336L157.447 62.6909Z" fill="#FFCD32"/>
<path d="M167.756 62.7105L167.024 63.4426L169.367 65.7853L170.099 65.0532L167.756 62.7105Z" fill="#FFCD32"/>
<path d="M178.062 62.7093L177.33 63.4414L179.672 65.7841L180.404 65.052L178.062 62.7093Z" fill="#FFCD32"/>
<path d="M175.738 57.1584L173.396 59.5011L174.128 60.2332L176.47 57.8905L175.738 57.1584Z" fill="#FFCD32"/>
<path d="M165.434 57.1596L163.091 59.5023L163.823 60.2344L166.166 57.8917L165.434 57.1596Z" fill="#FFCD32"/>
<path d="M155.128 57.1525L152.786 59.4952L153.518 60.2273L155.86 57.8846L155.128 57.1525Z" fill="#FFCD32"/>
<path d="M144.824 57.1537L142.481 59.4963L143.213 60.2284L145.556 57.8857L144.824 57.1537Z" fill="#FFCD32"/>
<path d="M149.036 75.2214L148.304 75.9535L150.647 78.2962L151.379 77.5641L149.036 75.2214Z" fill="#FFCD32"/>
<path d="M157.45 73.784L156.718 74.5161L159.061 76.8588L159.793 76.1267L157.45 73.784Z" fill="#FFCD32"/>
<path d="M167.759 73.7994L167.027 74.5315L169.37 76.8742L170.102 76.1421L167.759 73.7994Z" fill="#FFCD32"/>
<path d="M178.064 73.8024L177.332 74.5345L179.674 76.8772L180.406 76.1451L178.064 73.8024Z" fill="#FFCD32"/>
<path d="M186.038 68.2432L183.696 70.5859L184.428 71.318L186.771 68.9753L186.038 68.2432Z" fill="#FFCD32"/>
<path d="M175.733 68.2444L173.391 70.5871L174.123 71.3192L176.465 68.9765L175.733 68.2444Z" fill="#FFCD32"/>
<path d="M165.429 68.2456L163.086 70.5883L163.819 71.3204L166.161 68.9777L165.429 68.2456Z" fill="#FFCD32"/>
<path d="M155.124 68.2385L152.781 70.5812L153.513 71.3133L155.856 68.9706L155.124 68.2385Z" fill="#FFCD32"/>
<path d="M178.062 84.8831L177.33 85.6151L179.673 87.9578L180.405 87.2257L178.062 84.8831Z" fill="#FFCD32"/>
<path d="M186.041 79.3405L183.698 81.6832L184.43 82.4153L186.773 80.0726L186.041 79.3405Z" fill="#FFCD32"/>
<path d="M175.737 79.3417L173.394 81.6844L174.126 82.4164L176.469 80.0738L175.737 79.3417Z" fill="#FFCD32"/>
<path d="M165.431 79.3387L163.088 81.6814L163.82 82.4135L166.163 80.0708L165.431 79.3387Z" fill="#FFCD32"/>
<path d="M155.127 79.3357L152.784 81.6784L153.516 82.4105L155.859 80.0678L155.127 79.3357Z" fill="#FFCD32"/>
<path d="M144.826 79.3369L142.483 81.6796L143.215 82.4117L145.558 80.069L144.826 79.3369Z" fill="#FFCD32"/>
<path d="M180.877 87.428L145.676 81.6923L145.742 81.4231C150.273 62.8078 158.203 53.436 168.085 55.047C173.468 55.925 177.249 59.4699 179.328 65.5867C181.134 70.8917 181.664 78.1432 180.902 87.1506L180.877 87.428ZM146.314 81.274L180.409 86.8193C181.13 78.0148 180.6 70.9248 178.84 65.744C176.827 59.8219 173.178 56.3929 168.002 55.5522C155.197 53.4733 148.935 70.6432 146.314 81.274Z" fill="#0083AF"/>
<path d="M166.527 57.9252C166.239 57.8729 165.964 57.7642 165.718 57.6056C165.472 57.4469 165.259 57.2414 165.093 57.0006C164.926 56.7598 164.809 56.4886 164.747 56.2024C164.686 55.9163 164.681 55.6207 164.734 55.3328L164.895 54.0241L166.183 47.398L170.565 48.1973L169.119 56.1238C169.068 56.4125 168.96 56.6883 168.802 56.9353C168.643 57.1822 168.438 57.3955 168.197 57.5629C167.956 57.7302 167.685 57.8484 167.398 57.9106C167.111 57.9728 166.815 57.9777 166.527 57.9252V57.9252Z" fill="#FFA87C"/>
<path d="M163.943 54.9186L171.215 51.6014L165.84 46.7768L163.943 54.9186Z" fill="#0083AF"/>
<path d="M164.713 52.9805C160.985 52.1522 160.091 48.0109 161.217 44.0683C162.576 39.2851 166.158 35.7484 170.916 37.7321C179.592 41.3475 173.911 54.989 164.713 52.9805Z" fill="#FFA87C"/>
<path d="M168.772 45.5551C168.731 45.6686 168.648 45.7615 168.539 45.8135C168.43 45.8655 168.306 45.8724 168.192 45.8325C168.108 45.8024 168.035 45.7481 167.982 45.6766C167.929 45.605 167.899 45.5194 167.894 45.4305C167.89 45.3416 167.912 45.2534 167.957 45.1769C168.003 45.1004 168.07 45.0391 168.15 45.0007C168.23 44.9623 168.32 44.9485 168.408 44.961C168.497 44.9735 168.579 45.0117 168.645 45.071C168.712 45.1302 168.759 45.2078 168.782 45.2939C168.804 45.3801 168.801 45.4709 168.772 45.5551Z" fill="#0083AF"/>
<path d="M164.121 44.3872C164.081 44.5004 163.997 44.5929 163.889 44.6446C163.781 44.6962 163.656 44.7027 163.543 44.6626C163.43 44.6225 163.337 44.5392 163.286 44.4308C163.234 44.3225 163.228 44.198 163.268 44.0849C163.288 44.0289 163.318 43.9773 163.358 43.9332C163.398 43.889 163.446 43.8531 163.5 43.8276C163.553 43.802 163.611 43.7872 163.671 43.7841C163.73 43.781 163.789 43.7897 163.845 43.8095C163.901 43.8294 163.953 43.8601 163.997 43.8998C164.041 43.9396 164.077 43.9877 164.103 44.0413C164.128 44.095 164.143 44.1531 164.146 44.2125C164.149 44.2718 164.141 44.3312 164.121 44.3872V44.3872Z" fill="#0083AF"/>
<path d="M169.624 45.1037C169.567 44.8576 169.455 44.6278 169.296 44.4319C169.136 44.2359 168.934 44.079 168.705 43.9731C168.507 43.9036 168.296 43.8834 168.089 43.9145C167.881 43.9455 167.685 44.0268 167.516 44.1512L167.235 43.7164C167.472 43.5473 167.747 43.4383 168.035 43.3986C168.324 43.359 168.617 43.3898 168.891 43.4886C169.2 43.6209 169.474 43.824 169.69 44.0816C169.905 44.3391 170.058 44.6439 170.134 44.9712L169.624 45.1037Z" fill="#0083AF"/>
<path d="M165.649 48.7191H165.607C165.268 48.7154 164.933 48.6396 164.626 48.4968C164.318 48.354 164.044 48.1475 163.822 47.8908L164.212 47.5471C164.385 47.7504 164.6 47.9141 164.842 48.027C165.085 48.1399 165.348 48.1994 165.615 48.2014H165.649C165.954 48.1991 166.256 48.1352 166.537 48.0135C166.817 47.8918 167.07 47.7149 167.28 47.4932L167.657 47.8494C167.397 48.1211 167.086 48.338 166.741 48.4873C166.396 48.6367 166.024 48.7155 165.649 48.7191Z" fill="#0083AF"/>
<path d="M164.68 47.0625L163.475 46.6484L164.692 43.5383C164.659 43.3738 164.585 43.2203 164.477 43.0916C164.369 42.9629 164.231 42.8631 164.075 42.8011C163.855 42.7541 163.626 42.762 163.41 42.8241C163.193 42.8862 162.995 43.0006 162.833 43.1573L162.501 42.7431C162.728 42.5288 163.005 42.375 163.307 42.2961C163.609 42.2172 163.926 42.2157 164.228 42.2917C164.48 42.3869 164.703 42.5457 164.875 42.7525C165.047 42.9594 165.162 43.2072 165.21 43.472L165.231 43.5507L164.15 46.3254L164.85 46.5739L164.68 47.0625Z" fill="#0083AF"/>
<path d="M176.905 39.2271C175.58 35.9472 167.02 34.6386 164.088 35.8809C160.564 37.3346 161.516 43.9897 167.533 39.5129C167.434 42.8922 170.776 45.1534 173.41 44.147C168.279 52.5084 174.698 51.2825 175.481 49.4645C176.263 47.6465 178.235 42.5071 176.905 39.2271Z" fill="#0083AF"/>
<path d="M151.182 79.5835L151.101 80.0948L169.346 82.9715L169.427 82.4602L151.182 79.5835Z" fill="#0083AF"/>
<path d="M136.345 45.8201C136.403 45.7686 136.47 45.7293 136.544 45.7046C136.618 45.68 136.696 45.6704 136.773 45.6766C136.85 45.6828 136.926 45.7046 136.994 45.7406C137.063 45.7767 137.124 45.8263 137.173 45.8864C137.173 45.8864 136.084 44.5777 136.589 44.1636C137.003 43.8199 137.521 44.2381 137.521 44.2381C137.521 44.2381 136.577 43.1283 137.078 42.6976C137.579 42.2669 138.531 43.3768 138.531 43.3768C138.474 43.3107 138.43 43.234 138.403 43.1509C138.376 43.0679 138.365 42.9803 138.372 42.8932C138.379 42.806 138.404 42.7212 138.444 42.6435C138.484 42.5659 138.539 42.4969 138.606 42.4408C139.31 41.8403 141.252 44.5115 141.252 44.5115C141.252 44.5115 140.933 42.9875 141.666 42.768C142.494 42.5236 144.428 48.2511 144.428 48.2511C144.507 48.57 141.173 51.7422 140.855 51.8209L138.055 48.7191L137.844 48.4664C137.844 48.4664 135.848 46.3502 136.345 45.8201Z" fill="#FFA87C"/>
<path d="M138.552 42.9853L138.158 43.3213L140.223 45.7409L140.616 45.4049L138.552 42.9853Z" fill="#0083AF"/>
<path d="M137.543 43.856L137.149 44.192L139.213 46.6119L139.607 46.276L137.543 43.856Z" fill="#0083AF"/>
<path d="M137.225 45.5262L136.832 45.8621L138.207 47.4754L138.601 47.1395L137.225 45.5262Z" fill="#0083AF"/>
<path d="M170.2 59.648C158.376 61.4039 152.355 56.161 145.124 47.34C145.05 47.2489 139.977 51.8292 140.051 51.9203C142.565 54.8606 152.318 73.6126 177.944 64.8123" fill="white"/>
<path d="M136.846 51.6114L136.114 52.3435L138.457 54.6862L139.189 53.9541L136.846 51.6114Z" fill="#FFCD32"/>
<path d="M147.147 51.6061L146.415 52.3382L148.757 54.6809L149.489 53.9488L147.147 51.6061Z" fill="#FFCD32"/>
<path d="M144.825 46.0688L142.482 48.4115L143.215 49.1436L145.557 46.8009L144.825 46.0688Z" fill="#FFCD32"/>
<path d="M136.842 62.7015L136.11 63.4336L138.453 65.7763L139.185 65.0442L136.842 62.7015Z" fill="#FFCD32"/>
<path d="M147.143 62.6921L146.411 63.4242L148.753 65.7669L149.485 65.0348L147.143 62.6921Z" fill="#FFCD32"/>
<path d="M157.447 62.6909L156.715 63.423L159.058 65.7657L159.79 65.0336L157.447 62.6909Z" fill="#FFCD32"/>
<path d="M167.756 62.7105L167.024 63.4426L169.367 65.7853L170.099 65.0532L167.756 62.7105Z" fill="#FFCD32"/>
<path d="M178.062 62.7093L177.33 63.4414L179.672 65.7841L180.404 65.052L178.062 62.7093Z" fill="#FFCD32"/>
<path d="M175.738 57.1584L173.396 59.5011L174.128 60.2332L176.47 57.8905L175.738 57.1584Z" fill="#FFCD32"/>
<path d="M165.434 57.1596L163.091 59.5023L163.823 60.2344L166.166 57.8917L165.434 57.1596Z" fill="#FFCD32"/>
<path d="M155.128 57.1525L152.786 59.4952L153.518 60.2273L155.86 57.8846L155.128 57.1525Z" fill="#FFCD32"/>
<path d="M144.824 57.1537L142.481 59.4963L143.213 60.2284L145.556 57.8857L144.824 57.1537Z" fill="#FFCD32"/>
<path d="M149.036 75.2214L148.304 75.9535L150.647 78.2962L151.379 77.5641L149.036 75.2214Z" fill="#FFCD32"/>
<path d="M157.45 73.784L156.718 74.5161L159.061 76.8588L159.793 76.1267L157.45 73.784Z" fill="#FFCD32"/>
<path d="M167.759 73.7994L167.027 74.5315L169.37 76.8742L170.102 76.1421L167.759 73.7994Z" fill="#FFCD32"/>
<path d="M178.064 73.8024L177.332 74.5345L179.674 76.8772L180.406 76.1451L178.064 73.8024Z" fill="#FFCD32"/>
<path d="M186.038 68.2432L183.696 70.5859L184.428 71.318L186.771 68.9753L186.038 68.2432Z" fill="#FFCD32"/>
<path d="M175.733 68.2444L173.391 70.5871L174.123 71.3192L176.465 68.9765L175.733 68.2444Z" fill="#FFCD32"/>
<path d="M165.429 68.2456L163.086 70.5883L163.819 71.3204L166.161 68.9777L165.429 68.2456Z" fill="#FFCD32"/>
<path d="M155.124 68.2385L152.781 70.5812L153.513 71.3133L155.856 68.9706L155.124 68.2385Z" fill="#FFCD32"/>
<path d="M178.062 84.8831L177.33 85.6151L179.673 87.9578L180.405 87.2257L178.062 84.8831Z" fill="#FFCD32"/>
<path d="M186.041 79.3405L183.698 81.6832L184.43 82.4153L186.773 80.0726L186.041 79.3405Z" fill="#FFCD32"/>
<path d="M175.737 79.3417L173.394 81.6844L174.126 82.4164L176.469 80.0738L175.737 79.3417Z" fill="#FFCD32"/>
<path d="M165.431 79.3387L163.088 81.6814L163.82 82.4135L166.163 80.0708L165.431 79.3387Z" fill="#FFCD32"/>
<path d="M155.127 79.3357L152.784 81.6784L153.516 82.4105L155.859 80.0678L155.127 79.3357Z" fill="#FFCD32"/>
<path d="M144.826 79.3369L142.483 81.6796L143.215 82.4117L145.558 80.069L144.826 79.3369Z" fill="#FFCD32"/>
<path d="M165.442 67.2888C151.018 67.2888 143.621 57.1839 140.784 53.3118C140.395 52.7817 140.089 52.3634 139.857 52.0694L139.757 51.9534L139.807 51.8043C139.919 51.4979 144.777 47.1081 145.075 47.0625L145.224 47.0335L145.323 47.1536C153.034 56.5586 158.99 61.0271 170.171 59.3706L170.246 59.8841C158.899 61.5655 152.852 57.0928 145.083 47.663C144.288 48.2925 141.062 51.208 140.395 51.8996C140.615 52.1729 140.884 52.5415 141.223 52.9846C144.777 57.83 155.577 72.5814 178.615 64.2283L178.789 64.7129C173.774 66.5268 169.351 67.2888 165.442 67.2888Z" fill="#0083AF"/>
<path d="M286 158.853H0V159.371H286V158.853Z" fill="#0083AF"/>
<path d="M261.798 165.322H24.2021V165.84H261.798V165.322Z" fill="#0083AF"/>
</svg>
